Coordinates
version=1
nRows=21
nColumns=22
inDegrees=yes

Units are S.I. units (second, meters, Newtons, ...)
If the header above contains a line with 'inDegrees', this indicates whether rotational values are in degrees (yes) or radians (no).

endheader
time	pelvis_tilt	pelvis_list	pelvis_rotation	pelvis_tx	pelvis_ty	pelvis_tz	hip_flexion_r	hip_adduction_r	hip_rotation_r	knee_angle_r	ankle_angle_r	subtalar_angle_r	hip_flexion_l	hip_adduction_l	hip_rotation_l	knee_angle_l	ankle_angle_l	subtalar_angle_l	lumbar_extension	lumbar_bending	lumbar_rotation
      1.36000000	     -3.53108998	     -6.26478156	     11.22266899	      1.07978754	      0.96546078	     -0.31176288	     11.38962158	      6.97420807	    -11.42965657	    -15.51168691	      6.84996488	     -0.12216982	     17.03643808	     -5.08296733	     12.88104916	    -23.94932462	     14.07201034	      7.83418032	     -1.65826703	      7.26398803	     -5.98589773
      1.37000000	     -3.51921060	     -6.30716947	     11.34213460	      1.07698976	      0.96548079	     -0.31172879	     11.55815288	      6.96797162	    -11.54939567	    -15.48820703	      6.70301381	     -0.08400707	     17.16969378	     -5.10990407	     12.85439517	    -24.82941850	     14.61079865	      7.80213314	     -1.73076612	      7.33221753	     -5.97745848
      1.38000000	     -3.49937346	     -6.35966559	     11.44012990	      1.07421959	      0.96550248	     -0.31167961	     11.71567038	      6.97769701	    -11.65083436	    -15.45897032	      6.55037204	     -0.05001275	     17.26063047	     -5.16694050	     12.78706533	    -25.75934854	     15.11169830	      7.73731871	     -1.79100734	      7.40616898	     -5.97572370
      1.39000000	     -3.48173719	     -6.41620972	     11.51785015	      1.07146776	      0.96551479	     -0.31162106	     11.87442083	      6.99343402	    -11.74130027	    -15.42796689	      6.39139656	     -0.02038644	     17.31257694	     -5.24497215	     12.69050137	    -26.71804344	     15.55924636	      7.65477011	     -1.82949324	      7.47671454	     -5.98018229
      1.40000000	     -3.44077582	     -6.45796351	     11.56563364	      1.06874990	      0.96555400	     -0.31155052	     12.01103315	      7.00082345	    -11.82153315	    -15.41269092	      6.25491706	      0.00243290	     17.27634502	     -5.33437661	     12.56127889	    -27.67075667	     15.95860644	      7.55973848	     -1.88244344	      7.52858273	     -5.96614143
      1.41000000	     -3.43663359	     -6.52784336	     11.61097216	      1.06600085	      0.96553712	     -0.31151190	     12.18101161	      7.03155081	    -11.87151853	    -15.37090763	      6.07038548	      0.02530644	     17.25478558	     -5.45111041	     12.43869333	    -28.64100586	     16.26768536	      7.46044117	     -1.87092712	      7.60400881	     -6.00588635
      1.42000000	     -3.40426050	     -6.56279096	     11.62509826	      1.06328048	      0.96555559	     -0.31148348	     12.33136288	      7.02835940	    -11.93587905	    -15.36808752	      5.92884971	      0.04162788	     17.12329220	     -5.55690864	     12.29330740	    -29.56677509	     16.53887649	      7.37285489	     -1.88634338	      7.64077916	     -6.00823558
      1.43000000	     -3.38708841	     -6.60677634	     11.63167215	      1.06053186	      0.96554833	     -0.31148829	     12.49659610	      7.03234091	    -11.97401969	    -15.35588208	      5.76505772	      0.05753098	     16.96673642	     -5.67610849	     12.15571005	    -30.47386438	     16.74071993	      7.29214624	     -1.86969101	      7.68329490	     -6.04133035
      1.44000000	     -3.37446877	     -6.64504118	     11.62693522	      1.05776135	      0.96552393	     -0.31152831	     12.67366399	      7.02644204	    -12.00714048	    -15.35764084	      5.60447351	      0.07007350	     16.76466463	     -5.79679937	     12.02010129	    -31.34869275	     16.89369277	      7.22363443	     -1.83907650	      7.71731872	     -6.08914885
      1.45000000	     -3.36609211	     -6.67522335	     11.61704910	      1.05495726	      0.96548679	     -0.31163423	     12.85870656	      7.00706575	    -12.02439390	    -15.36788928	      5.44474066	      0.07953240	     16.51937209	     -5.91203691	     11.89210467	    -32.18866068	     17.00054606	      7.17006506	     -1.79450122	      7.74557926	     -6.16060406
      1.46000000	     -3.34633919	     -6.69961846	     11.59768210	      1.05212275	      0.96544544	     -0.31176435	     13.04540376	      6.98018781	    -12.05176531	    -15.40179013	      5.29243424	      0.09122963	     16.22022152	     -6.03534177	     11.75363290	    -32.99723991	     17.07743873	      7.12967492	     -1.75531462	      7.76499768	     -6.23173983
      1.47000000	     -3.32883326	     -6.72965698	     11.57652294	      1.04924705	      0.96538418	     -0.31194002	     13.24095633	      6.95652953	    -12.06482746	    -15.44153466	      5.13542432	      0.10344468	     15.89193562	     -6.17061213	     11.61430220	    -33.78164229	     17.12928797	      7.09897903	     -1.70408174	      7.79058143	     -6.33387541
      1.48000000	     -3.30587136	     -6.76020607	     11.55668690	      1.04632382	      0.96530878	     -0.31218216	     13.43949647	      6.92864967	    -12.07267417	    -15.49343380	      4.98038686	      0.11657792	     15.52911518	     -6.31237722	     11.47297131	    -34.54430610	     17.16111461	      7.07680107	     -1.64882382	      7.82079716	     -6.45504466
      1.49000000	     -3.27395466	     -6.76497584	     11.53666071	      1.04337076	      0.96524060	     -0.31247878	     13.63304231	      6.87081887	    -12.07769440	    -15.56291602	      4.83654599	      0.13280842	     15.11483793	     -6.43952444	     11.31150570	    -35.26968497	     17.16347104	      7.05788132	     -1.59913328	      7.82338307	     -6.61390475
      1.50000000	     -3.23289095	     -6.81998719	     11.51962288	      1.04034193	      0.96512913	     -0.31279804	     13.83497926	      6.86425532	    -12.08940787	    -15.63396699	      4.67928236	      0.15358970	     14.69953313	     -6.62657421	     11.15920204	    -36.00800651	     17.17369688	      7.03922566	     -1.54357606	      7.88049425	     -6.75113587
      1.51000000	     -3.18707340	     -6.86398532	     11.51111169	      1.03727299	      0.96501179	     -0.31318326	     14.03184202	      6.84241203	    -12.09299703	    -15.70689744	      4.52485598	      0.17782501	     14.25175960	     -6.81051182	     10.99630417	    -36.71707081	     17.16878037	      7.02411021	     -1.48407710	      7.92783550	     -6.94010975
      1.52000000	     -3.13406712	     -6.89959959	     11.50460024	      1.03413814	      0.96488324	     -0.31360826	     14.23169169	      6.80692585	    -12.10818289	    -15.79606702	      4.38048109	      0.20554325	     13.77723104	     -6.99495123	     10.82372221	    -37.40492316	     17.14074548	      7.00769490	     -1.42827395	      7.96386915	     -7.13691485
      1.53000000	     -3.07518848	     -6.94312241	     11.50613608	      1.03093843	      0.96473608	     -0.31408082	     14.43172775	      6.77536948	    -12.12995496	    -15.88658290	      4.23701454	      0.24135172	     13.28591242	     -7.19448786	     10.64957381	    -38.07243835	     17.09968243	      6.98896524	     -1.36902881	      8.00851937	     -7.35354774
      1.54000000	     -3.02546415	     -6.96916814	     11.50659861	      1.02767498	      0.96456684	     -0.31459026	     14.64775285	      6.71811075	    -12.15886411	    -15.99000322	      4.10472498	      0.27321393	     12.77989781	     -7.38262170	     10.45776477	    -38.70049495	     17.02885293	      6.97436111	     -1.29590078	      8.02876157	     -7.58996643
      1.55000000	     -2.96489503	     -7.01726677	     11.52144630	      1.02430423	      0.96437484	     -0.31513939	     14.86521188	      6.67836263	    -12.21003207	    -16.09391792	      3.96861631	      0.31971516	     12.26960045	     -7.59573356	     10.28718186	    -39.31495107	     16.93848032	      6.95701471	     -1.22784616	      8.07195661	     -7.82885818
      1.56000000	     -2.90559076	     -7.06703816	     11.54827236	      1.02083705	      0.96415712	     -0.31572997	     15.09034178	      6.63314963	    -12.27170332	    -16.19891277	      3.83321206	      0.37767887	     11.75597794	     -7.80980724	     10.13078545	    -39.89637109	     16.82370949	      6.94041496	     -1.15386051	      8.11261152	     -8.08423590
